<svg xmlns="http://www.w3.org/2000/svg" height="500" width="652.021484375"><rect x="40" y="399.6935562205267" width="232" height="60.306443779473284" rx="0" ry="0" fill="#2b8cbe" stroke="white" stroke-width="1" opacity="1"></rect><rect x="40" y="397.9827351203998" width="232" height="1.710821100126907" rx="0" ry="0" fill="#c9c2b5" stroke="white" stroke-width="1" opacity="1"></rect><rect x="272" y="438.63849765258215" width="288" height="21.361502347417854" rx="0" ry="0" fill="#2b8cbe" stroke="white" stroke-width="1" opacity="1"></rect><rect x="272" y="397.9827351203998" width="288" height="40.65576253218234" rx="0" ry="0" fill="#c9c2b5" stroke="white" stroke-width="1" opacity="1"></rect><rect x="40" y="350.2681456970673" width="193.4035087719298" height="47.714589423332484" rx="0" ry="0" fill="#2b8cbe" stroke="white" stroke-width="1" opacity="1"></rect><rect x="40" y="343.59836437982733" width="193.4035087719298" height="6.669781317239995" rx="0" ry="0" fill="#c9c2b5" stroke="white" stroke-width="1" opacity="1"></rect><rect x="233.4035087719298" y="390.3871526147333" width="326.5964912280702" height="7.595582505666528" rx="0" ry="0" fill="#2b8cbe" stroke="white" stroke-width="1" opacity="1"></rect><rect x="233.4035087719298" y="343.59836437982733" width="326.5964912280702" height="46.78878823490595" rx="0" ry="0" fill="#c9c2b5" stroke="white" stroke-width="1" opacity="1"></rect><rect x="40" y="281.73687285000324" width="144.3626062322946" height="61.86149152982409" rx="0" ry="0" fill="#2b8cbe" stroke="white" stroke-width="1" opacity="1"></rect><rect x="40" y="208.87778282598816" width="144.3626062322946" height="72.85909002401507" rx="0" ry="0" fill="#c9c2b5" stroke="white" stroke-width="1" opacity="1"></rect><rect x="184.3626062322946" y="320.35246011171387" width="375.63739376770536" height="23.245904268113463" rx="0" ry="0" fill="#2b8cbe" stroke="white" stroke-width="1" opacity="1"></rect><rect x="184.3626062322946" y="208.87778282598816" width="375.63739376770536" height="111.4746772857257" rx="0" ry="0" fill="#c9c2b5" stroke="white" stroke-width="1" opacity="1"></rect><rect x="40" y="62.027536890346255" width="13.514124293785315" height="146.8502459356419" rx="0" ry="0" fill="#2b8cbe" stroke="white" stroke-width="1" opacity="1"></rect><rect x="40" y="40" width="13.514124293785315" height="22.027536890346255" rx="0" ry="0" fill="#c9c2b5" stroke="white" stroke-width="1" opacity="1"></rect><rect x="53.514124293785315" y="171.2623137974618" width="506.4858757062147" height="37.61546902852638" rx="0" ry="0" fill="#2b8cbe" stroke="white" stroke-width="1" opacity="1"></rect><rect x="53.514124293785315" y="40" width="506.4858757062147" height="131.2623137974618" rx="0" ry="0" fill="#c9c2b5" stroke="white" stroke-width="1" opacity="1"></rect><rect x="580" y="41" width="10" height="10" rx="0" ry="0" fill="#2b8cbe" stroke="#2b8cbe" stroke-width="0" opacity="1"></rect><text x="595" y="50" font-size="10px" font-family="system-ui, sans-serif" text-anchor="start" dominant-baseline="auto" fill="gray" stroke-width="0">Yes</text><rect x="580" y="61" width="10" height="10" rx="0" ry="0" fill="#c9c2b5" stroke="#c9c2b5" stroke-width="0" opacity="1"></rect><text x="595" y="70" font-size="10px" font-family="system-ui, sans-serif" text-anchor="start" dominant-baseline="auto" fill="gray" stroke-width="0">No</text></svg>